<svg width="600" height="511.196" xmlns="http://www.w3.org/2000/svg">

 <g>
  <title>background</title>
  <rect fill="none" id="canvas_background" height="513.196" width="602" y="-1" x="-1"/>
 </g>
 <g>
  <title>Layer 1</title>
  <g id="svg_1">
   <path id="svg_2" d="m40.7,328.174c14.275,-14.275 33.012,-22.506 54.185,-23.804c15.904,-0.974 29.251,-11.912 33.213,-27.216c3.133,-12.099 9.097,-22.609 17.726,-31.239c21.282,-21.281 53.305,-24.166 83.536,-8.221l-55.43,53.531c-6.811,1.635 -13.269,5.102 -18.574,10.408c-15.336,15.336 -15.336,40.291 0,55.627c15.141,15.142 40.487,15.142 55.627,0c5.194,-5.194 8.623,-11.493 10.299,-18.147l15.141,-15.768c6.717,-6.994 -4.104,-17.384 -10.819,-10.389l-4.821,5.021c-3.722,-12.279 -13.691,-22.298 -25.953,-26.083l142.277,-136.949c6.993,-6.718 -3.398,-17.535 -10.392,-10.817l-86.066,82.685c-33.538,-19.523 -76.764,-20.174 -105.433,8.496c-10.399,10.398 -17.882,23.568 -21.641,38.085c-2.329,8.997 -10.209,15.428 -19.609,16.004c-24.884,1.524 -46.971,11.265 -63.874,28.169c-26.104,26.105 -34.934,64.669 -23.618,103.158c2.687,9.14 17.132,5.092 14.391,-4.231c-9.744,-33.14 -2.329,-66.157 19.835,-88.32zm159.678,18.48c-9.488,9.488 -24.926,9.489 -34.415,0c-9.488,-9.488 -9.488,-24.926 0,-34.415c9.291,-9.291 25.102,-9.312 34.415,0c9.488,9.489 9.488,24.927 0,34.415z"/>
   <path id="svg_3" d="m491.298,66.825l-46.025,-46.025c-3.684,-3.008 -7.298,-2.926 -10.842,0.246l-28.838,31.582c-0.453,0.496 -0.837,1.051 -1.143,1.65l-15.164,29.739l-37.319,35.853c-6.993,6.718 3.4,17.536 10.392,10.816l32.856,-31.565l17.774,17.774l-163.888,171.591c-6.697,6.974 4.073,17.416 10.819,10.39l15.183,-15.812c16.441,30.47 13.716,62.81 -7.802,84.329c-8.629,8.629 -19.14,14.593 -31.239,17.726c-15.3,3.961 -26.24,17.304 -27.224,33.209c-1.29,21.173 -9.519,39.912 -23.796,54.189c-38.024,38.024 -100.265,26.857 -135.736,-8.614c-5.171,-5.171 -9.848,-10.817 -13.901,-16.782c-5.452,-8.019 -17.857,0.411 -12.406,8.432c4.582,6.742 9.865,13.12 15.701,18.957c41.312,41.312 113.053,52.51 156.949,8.614c16.907,-16.907 26.646,-38.997 28.162,-63.876c0.581,-9.398 7.016,-17.278 16.011,-19.606c14.517,-3.759 27.687,-11.242 38.085,-21.641c28.933,-28.933 27.973,-72.589 8.025,-106.238l142.138,-148.943l29.75,-15.17c0.599,-0.306 1.154,-0.69 1.65,-1.143l31.582,-28.838c3.173,-3.546 3.255,-7.16 0.246,-10.844zm-41.194,27.92l-25.196,12.848l-20.403,-20.403l12.848,-25.196l22.863,-25.038l34.926,34.926l-25.038,22.863z"/>
   <path id="svg_4" d="m113.21,433.878c3.535,2.929 7.071,2.929 10.606,0l3.383,-3.383l5.954,5.954c3.535,2.929 7.071,2.929 10.606,0l18.161,-18.161c2.929,-2.929 2.929,-7.678 0,-10.606l-55.613,-55.613c-2.929,-2.929 -7.678,-2.929 -10.606,0l-18.161,18.161c-2.929,3.535 -2.929,7.071 0,10.606l6.123,6.123l-3.383,3.383c-6.857,6.857 3.75,17.463 10.606,10.606l3.383,-3.383l5.487,5.487l-3.383,3.383c-6.857,6.857 3.749,17.463 10.606,10.606l3.383,-3.383l6.231,6.231l-3.383,3.383c-2.929,2.929 -2.929,7.678 0,10.606zm-12.206,-65.9l45.007,45.007l-7.554,7.555l-45.007,-45.007l7.554,-7.555z"/>
   <circle id="svg_5" r="8.925" cy="134.72" cx="449.654"/>
   <path id="svg_6" d="m469.054,110.074c-3.485,3.485 -3.485,9.136 0,12.621s9.136,3.485 12.621,0s3.485,-9.136 0,-12.621s-9.136,-3.485 -12.621,0z"/>
   <path id="svg_7" d="m506.941,87.311c-3.485,-3.485 -9.136,-3.485 -12.621,0s-3.485,9.136 0,12.621s9.136,3.485 12.621,0s3.485,-9.136 0,-12.621z"/>
   <path id="svg_8" d="m381.146,66.212c3.485,-3.485 3.485,-9.136 0,-12.622c-3.485,-3.485 -9.136,-3.485 -12.621,0s-3.485,9.136 0,12.622c3.485,3.485 9.136,3.485 12.621,0z"/>
   <path id="svg_9" d="m399.481,40.501c3.485,-3.485 3.485,-9.136 0,-12.621s-9.136,-3.485 -12.621,0s-3.485,9.136 0,12.621c3.485,3.486 9.136,3.486 12.621,0z"/>
   <circle id="svg_10" r="8.925" cy="8.925" cx="415.934"/>
  </g>
  <text font-weight="bold" stroke="#000" transform="matrix(2.3254223853619904,0,0,2.5592359630940535,-659.524843140792,-550.5710842997414) " xml:space="preserve" text-anchor="start" font-family="Oswald, sans-serif" font-size="32" id="svg_11" y="346.851684" x="422.166492" stroke-width="0" fill="#000000">Ancient</text>
  <text font-style="italic" font-weight="bold" stroke="#000" transform="matrix(1.8135592937469482,0,0,1.7573964595794678,-297.83897269517183,-268.91124610975385) " xml:space="preserve" text-anchor="start" font-family="Oswald, sans-serif" font-size="28" id="svg_12" y="376.648" x="366.097992" fill-opacity="null" stroke-opacity="null" stroke-width="0" fill="#000000">Music</text>
 </g>
</svg>